Coordinates
version=1
nRows=16
nColumns=36
inDegrees=yes

Units are S.I. units (second, meters, Newtons, ...)
If the header above contains a line with 'inDegrees', this indicates whether rotational values are in degrees (yes) or radians (no).

endheader
time	pelvis_tilt	pelvis_list	pelvis_rotation	pelvis_tx	pelvis_ty	pelvis_tz	hip_flexion_r	hip_adduction_r	hip_rotation_r	knee_angle_r	knee_angle_r_beta	ankle_angle_r	subtalar_angle_r	mtp_angle_r	hip_flexion_l	hip_adduction_l	hip_rotation_l	knee_angle_l	knee_angle_l_beta	ankle_angle_l	subtalar_angle_l	mtp_angle_l	lumbar_extension	lumbar_bending	lumbar_rotation	arm_flex_r	arm_add_r	arm_rot_r	elbow_flex_r	pro_sup_r	arm_flex_l	arm_add_l	arm_rot_l	elbow_flex_l	pro_sup_l
      7.30000000	    -15.85973064	     -2.52758114	      2.53747784	      0.65431260	      0.57110108	      0.32962213	     79.90534843	    -12.07420846	     -2.73538592	    106.49068770	      1.85861312	     43.05827634	     -3.99685125	     -7.49999987	     80.13963026	    -10.07867198	      2.57570709	    107.38031769	      1.87414010	     40.42263736	     -7.04522076	     -7.49999987	    -22.78441807	     -2.78715916	      2.58471588	     54.28496633	      7.08003430	     71.45797244	    124.80019591	     96.88629549	     47.72579824	      5.75114980	     73.79976147	    128.34889918	     94.72064603
      7.31666670	    -15.76263089	     -2.49128023	      2.44239733	      0.64996182	      0.57760128	      0.33257537	     79.08375410	    -11.80638732	     -2.99109815	    105.30094394	      1.83784818	     42.82448799	     -4.22995926	     -7.49999987	     79.13777923	    -10.34969317	      2.18301217	    106.31227153	      1.85549917	     40.22036859	     -6.79076521	     -7.49999987	    -22.50419210	     -2.93701277	      2.38551048	     54.10922692	      7.33299060	     71.41783118	    124.88810385	     96.91857444	     47.21684335	      5.65720023	     73.95630026	    127.98326611	     94.69541195
      7.33333330	    -15.80786451	     -2.54260043	      2.61876292	      0.64892393	      0.58291043	      0.33251460	     78.40620430	    -11.76263852	     -3.41806514	    104.03845404	      1.81581357	     42.16723438	     -5.07416452	     -7.49999987	     78.44287424	    -10.37036187	      1.96644228	    104.91158758	      1.83105263	     40.07202855	     -6.04615184	     -7.49999987	    -21.96383212	     -2.65453362	      2.31078219	     54.03016208	      7.53869358	     71.86412397	    124.95342659	     93.03351090	     47.22273855	      5.83723901	     74.04640604	    128.20217933	     90.79440223
      7.35000000	    -15.49719328	     -2.63384700	      2.64927914	      0.64812061	      0.59611738	      0.33212685	     77.04247979	    -11.39087974	     -3.77127553	    102.10718666	      1.78210660	     41.67265638	     -5.68674715	     -7.49999987	     76.89974791	    -10.62548040	      1.50067105	    102.84922198	      1.79505756	     39.98347863	     -4.97126154	     -7.49999987	    -21.80528654	     -2.61298786	      2.15941214	     53.88068186	      7.55140919	     71.76491124	    124.76966421	     97.44195241	     46.93906812	      5.79443636	     73.88391911	    127.90261563	     93.24388832
      7.36666670	    -15.19301847	     -2.68033888	      2.84501873	      0.64241582	      0.60241450	      0.32992208	     75.85988613	    -11.34223646	     -4.12799845	    100.40465138	      1.75239175	     41.13389061	     -6.15311265	     -7.49999987	     75.87053253	    -10.47110656	      1.08768274	    100.97606595	      1.76236482	     39.20739109	     -4.69070670	     -7.49999987	    -21.85209326	     -2.48966215	      1.81187785	     54.13423876	      7.69047117	     71.82315612	    124.76672735	     97.45522619	     46.67317871	      5.89499161	     74.06920215	    127.76177455	     93.21472135
      7.38333330	    -14.80233493	     -2.69743281	      3.06471218	      0.64704649	      0.60904678	      0.33146224	     74.70657181	    -11.37787310	     -4.45627017	     99.24186020	      1.73209722	     40.43942706	     -6.20577105	     -7.49999987	     74.53819980	    -10.71055473	      0.71751483	     99.31192765	      1.73332012	     38.88079848	     -4.52901634	     -7.49999987	    -21.29770655	     -2.40124748	      1.90213868	     54.11649187	      7.69801313	     71.79407787	    124.57010492	     97.40589261	     46.76075658	      6.16388672	     73.83583298	    127.37218742	     93.13131927
      7.40000000	    -14.75536380	     -2.75166602	      3.20896520	      0.64924402	      0.61811438	      0.32843453	     73.42850610	    -11.35002523	     -4.65996723	     97.65929823	      1.70447630	     39.57400505	     -6.21652606	     -7.49999987	     73.35510308	    -10.60145036	      0.17265727	     97.48786052	      1.70148415	     39.53073083	     -4.43222204	     -7.49999987	    -20.17550217	     -2.24776945	      1.80354902	     53.70813630	      7.52965649	     71.83593714	    124.66717465	     97.36734715	     46.38322319	      6.45608136	     73.96700921	    127.26087701	     93.07189775
      7.41666670	    -14.25076442	     -2.85151108	      3.24462916	      0.64669041	      0.63351390	      0.32807548	     71.68766741	    -11.11695631	     -4.99917391	     95.76127044	      1.67134947	     38.57607077	     -6.59512987	     -7.49999987	     71.53725401	    -10.46549415	     -0.26685377	     95.23099731	      1.66209445	     39.36517566	     -4.46917823	     -7.49999987	    -20.10939514	     -2.19482258	      1.91501151	     53.89907899	      7.23391911	     71.66272549	    124.98676359	     96.11207471	     46.35275179	      6.73863310	     73.93244166	    126.92719234	     91.92928737
      7.43333330	    -13.98737344	     -2.79166431	      3.19978435	      0.64566620	      0.64184959	      0.32927033	     70.26615097	    -10.88851012	     -5.15592554	     93.69187869	      1.63523177	     37.80408796	     -6.77257862	     -7.49999987	     69.78736604	    -10.44257453	     -0.81733964	     92.82641616	      1.62012659	     39.03367218	     -4.82264683	     -7.49999987	    -19.46289234	     -2.28067309	      1.99128308	     53.88811625	      7.12419322	     71.67973520	    125.22941306	     95.03314002	     46.59324412	      7.06242834	     73.76194746	    126.88628091	     90.81248299
      7.45000000	    -13.86815603	     -2.70404809	      3.01123737	      0.65328112	      0.65433534	      0.32807261	     68.45491916	    -10.74857034	     -5.35203916	     91.39783853	      1.59519321	     37.03256788	     -6.48360120	     -7.49999987	     67.64341375	    -10.35224987	     -1.40389902	     90.16210294	      1.57362556	     38.94162835	     -5.40617743	     -7.49999987	    -18.39954178	     -2.37547768	      2.21086849	     53.45837890	      6.83100103	     71.78838891	    125.09027625	     94.82224735	     45.79020248	      7.01663128	     73.94884680	    126.66757413	     90.61515153
      7.46666670	    -13.72101184	     -2.42046914	      2.76766451	      0.65946211	      0.66421970	      0.32276448	     66.37613864	    -10.84307916	     -5.30263569	     88.94218675	      1.55233400	     36.07359124	     -5.70107782	     -7.49999987	     65.06689190	    -10.06397918	     -2.22517531	     87.41873998	      1.52574484	     39.12183091	     -5.78370242	     -7.49999987	    -17.08158912	     -2.42828843	      2.34907303	     52.49102347	      6.61137351	     72.29862537	    125.47537894	     94.87829028	     44.85633563	      6.98368705	     73.96671142	    126.71262493	     90.60155091
      7.48333330	    -12.71456470	     -1.74136729	      2.38490986	      0.65652114	      0.68028843	      0.32321910	     63.33887484	    -10.76129365	     -4.92345884	     85.88862743	      1.49903934	     35.49118332	     -4.80448316	     -7.49999987	     61.51008831	     -9.40146827	     -3.33814863	     84.23345047	      1.47015105	     38.50769405	     -7.10159732	     -7.49999987	    -17.02742596	     -3.06676082	      2.52519332	     52.22282675	      6.54519214	     71.95444033	    125.86800495	     94.81858997	     44.60492974	      7.14261274	     73.26205200	    126.48434618	     90.35379441
      7.50000000	    -12.13883093	     -1.36526763	      2.00714899	      0.65828883	      0.69418742	      0.32128597	     60.79086538	    -10.58890645	     -4.71913728	     82.86589845	      1.44628277	     34.68827745	     -4.79993256	     -7.49999987	     58.76092923	     -8.83314182	     -4.12485127	     81.30745132	      1.41908273	     37.61573465	     -8.34992395	     -7.49999987	    -16.43993309	     -3.16410699	      2.88566064	     51.76769156	      6.34224163	     72.15013813	    126.09793877	     94.85215105	     44.25373727	      7.52968716	     73.28411890	    126.41574495	     90.15187932
      7.51666670	    -11.63889682	     -1.07175536	      1.78494563	      0.66240244	      0.70327290	      0.32373633	     58.41065161	    -10.38025422	     -4.70135475	     79.98050789	      1.39592320	     34.22471270	     -4.68679022	     -7.49999987	     56.12424855	     -8.43596322	     -4.43781343	     78.68945859	      1.37339014	     36.94134782	     -9.48426366	     -7.49999987	    -15.40482334	     -3.33974291	      3.30233724	     51.21403866	      6.02263682	     71.57250519	    126.48713316	     93.14865078	     43.95224617	      7.71002614	     73.07120905	    126.37374395	     88.37310716
      7.53333330	    -11.49581009	     -1.05033260	      1.65329123	      0.66448928	      0.71890222	      0.32156471	     56.15646724	     -9.99049178	     -4.93956166	     76.66859827	      1.33811947	     33.93058502	     -4.24708572	     -7.49999987	     54.07956831	     -8.23514888	     -4.83806260	     75.77972967	      1.32260579	     35.88179685	    -10.03325353	     -7.49999987	    -14.11915865	     -3.14022392	      3.58633419	     50.02488934	      6.00511323	     71.42783149	    126.66934444	     91.21037574	     42.93307615	      7.82886711	     72.86735313	    126.54282304	     86.43119959
      7.55000000	    -10.90555959	     -1.03350159	      1.90566481	      0.66287186	      0.73383192	      0.32117358	     53.35563253	     -9.86959832	     -5.36675885	     73.08787321	      1.27562403	     33.11605411	     -4.24337949	     -7.49999987	     51.72131522	     -7.68772544	     -4.89486908	     72.51117701	      1.26555878	     34.32223917	    -11.13184991	     -7.49999987	    -13.74962942	     -2.98182959	      3.53272986	     49.58438399	      5.77449639	     71.34199100	    127.22617256	     91.55147341	     42.82655804	      8.12283542	     72.68516908	    126.20757861	     86.45188416
